<svg width="1200" height="400" viewBox="0 0 1200 400" fill="none" xmlns="http://www.w3.org/2000/svg">
<path d="M108.24 284.32C104.24 280.92 102.32 275.2 102.32 267.32V228C102.476 221.842 101.373 215.717 99.08 210C94.8554 213.321 90.0359 215.805 84.88 217.32C85.9322 220.779 86.4185 224.386 86.32 228V267.48C86.32 280.28 90.32 290.12 97.88 296.72C104.687 302.133 113.187 304.966 121.88 304.72C123.579 304.736 125.277 304.63 126.96 304.4L124.52 288.4C118.771 289.172 112.945 287.712 108.24 284.32V284.32Z" fill="#FFA300"/>
<path d="M62.16 208.2V192.2C77.16 192.2 86.16 191.2 86.16 172.2V140.28C85.6183 129.279 89.3073 118.487 96.4702 110.119C103.633 101.751 113.727 96.4418 124.68 95.28L126.28 111.28L125.48 103.28L126.32 111.28C123.84 111.56 102.32 114.76 102.32 140.36V172C102.32 208.2 74.16 208.2 62.16 208.2Z" fill="#FFA300"/>
<path d="M154.6 190C156.871 184.278 157.959 178.155 157.8 172V140.28C157.8 114.68 179.48 111.48 181.8 111.2L180.96 103.2L180.16 95.2C169.207 96.3617 159.113 101.671 151.95 110.039C144.787 118.407 141.098 129.199 141.64 140.2V172C141.739 175.601 141.253 179.195 140.2 182.64C145.417 184.175 150.3 186.671 154.6 190V190Z" fill="#FFA300"/>
<path d="M177.28 304.56C168.587 304.806 160.087 301.973 153.28 296.56C145.64 289.96 141.72 280.12 141.72 267.32V228C141.72 208.76 132.56 207.8 117.72 207.8V191.8C129.72 191.8 157.72 191.8 157.72 228V267.48C157.72 275.48 159.72 281.08 163.64 284.48C168.282 287.774 173.994 289.202 179.64 288.48L182.08 304.48C180.484 304.616 178.88 304.643 177.28 304.56Z" fill="#FFA300"/>
<path d="M1100.92 210C1098.63 215.717 1097.52 221.842 1097.68 228V267.44C1097.68 275.44 1095.68 281.08 1091.76 284.48C1087.06 287.824 1081.27 289.254 1075.56 288.48L1073.12 304.48C1074.8 304.71 1076.5 304.816 1078.2 304.8C1086.89 305.039 1095.39 302.207 1102.2 296.8C1109.84 290.24 1113.76 280.4 1113.76 267.56V228C1113.66 224.386 1114.15 220.779 1115.2 217.32C1110.02 215.799 1105.18 213.315 1100.92 210V210Z" fill="#FFA300"/>
<path d="M1137.84 208.36C1125.84 208.36 1097.84 208.36 1097.84 172.16V140.44C1097.84 114.84 1076.16 111.64 1073.84 111.36L1075.48 95.36C1086.43 96.5217 1096.53 101.831 1103.69 110.199C1110.85 118.567 1114.54 129.358 1114 140.36V172C1114 191.2 1123.16 192.2 1138 192.2L1137.84 208.36Z" fill="#FFA300"/>
<path d="M1042.2 140.44V172C1042.04 178.154 1043.13 184.278 1045.4 190C1049.65 186.688 1054.48 184.193 1059.64 182.64C1058.59 179.195 1058.1 175.601 1058.2 172V140.44C1058.74 129.438 1055.05 118.647 1047.89 110.279C1040.73 101.911 1030.63 96.6017 1019.68 95.44L1018.04 111.44C1020.52 111.64 1042.2 114.84 1042.2 140.44Z" fill="#FFA300"/>
<path d="M1022.72 304.72C1021.02 304.737 1019.32 304.63 1017.64 304.4L1020.12 288.6L1018.88 296.6L1020.04 288.6C1025.77 289.38 1031.57 287.95 1036.28 284.6C1040.28 281.2 1042.2 275.48 1042.2 267.56V228C1042.2 191.76 1070.2 191.76 1082.2 191.76V207.76C1067.2 207.76 1058.2 208.76 1058.2 228V267.44C1058.2 280.28 1054.2 290.12 1046.64 296.68C1039.86 302.083 1031.39 304.929 1022.72 304.72Z" fill="#FFA300"/>
<path d="M478.6 250.72C468.213 250.72 458.058 247.64 449.421 241.869C440.785 236.098 434.053 227.895 430.078 218.299C426.103 208.702 425.063 198.142 427.089 187.954C429.116 177.766 434.118 168.408 441.463 161.063C448.808 153.718 458.166 148.716 468.354 146.689C478.542 144.663 489.102 145.703 498.699 149.678C508.295 153.653 516.498 160.385 522.269 169.021C528.04 177.658 531.12 187.813 531.12 198.2C531.109 212.126 525.573 225.478 515.726 235.326C505.878 245.173 492.526 250.709 478.6 250.72V250.72ZM478.6 163.84C471.793 163.832 465.137 165.844 459.473 169.621C453.81 173.398 449.395 178.77 446.786 185.057C444.178 191.345 443.493 198.265 444.819 204.941C446.145 211.618 449.422 217.751 454.236 222.564C459.049 227.378 465.182 230.655 471.859 231.981C478.535 233.307 485.455 232.622 491.743 230.014C498.03 227.405 503.402 222.99 507.179 217.327C510.956 211.663 512.968 205.007 512.96 198.2C512.907 189.118 509.265 180.426 502.828 174.019C496.391 167.612 487.682 164.01 478.6 164V163.84Z" fill="white"/>
<path d="M708.56 145.68V158.6C700.958 151.985 691.613 147.696 681.64 146.246C671.667 144.797 661.487 146.247 652.316 150.423C643.145 154.6 635.369 161.327 629.916 169.802C624.463 178.277 621.564 188.142 621.564 198.22C621.564 208.298 624.463 218.163 629.916 226.638C635.369 235.113 643.145 241.84 652.316 246.017C661.487 250.193 671.667 251.643 681.64 250.194C691.613 248.744 700.958 244.455 708.56 237.84V250.72H726.68V145.68H708.56ZM674.16 232.6C667.356 232.6 660.705 230.582 655.048 226.803C649.391 223.023 644.982 217.65 642.379 211.364C639.775 205.079 639.094 198.162 640.421 191.489C641.748 184.816 645.025 178.686 649.836 173.876C654.646 169.065 660.776 165.788 667.449 164.461C674.122 163.134 681.039 163.815 687.324 166.419C693.61 169.022 698.983 173.431 702.763 179.088C706.542 184.745 708.56 191.396 708.56 198.2C708.56 207.323 704.936 216.073 698.484 222.524C692.033 228.976 683.283 232.6 674.16 232.6V232.6Z" fill="white"/>
<path d="M313.8 145.68V158.6C304.298 150.259 292.083 145.666 279.44 145.68C270.936 145.635 262.549 147.656 254.999 151.569C247.449 155.481 240.962 161.169 236.096 168.142C231.229 175.116 228.128 183.166 227.06 191.603C225.992 200.039 226.989 208.608 229.964 216.575C232.939 224.541 237.804 231.665 244.141 237.336C250.478 243.007 258.096 247.054 266.343 249.13C274.589 251.206 283.216 251.249 291.483 249.254C299.749 247.26 307.408 243.288 313.8 237.68V250.56H332V145.68H313.8ZM279.44 232.6C272.635 232.608 265.98 230.597 260.317 226.822C254.655 223.047 250.24 217.677 247.63 211.392C245.02 205.107 244.333 198.189 245.656 191.513C246.979 184.838 250.252 178.705 255.061 173.89C259.871 169.075 266 165.795 272.674 164.464C279.348 163.133 286.267 163.812 292.555 166.415C298.843 169.017 304.218 173.426 308 179.084C311.781 184.742 313.8 191.395 313.8 198.2C313.789 207.313 310.167 216.051 303.727 222.499C297.287 228.946 288.553 232.579 279.44 232.6V232.6Z" fill="white"/>
<path d="M831.76 111V158.6C824.158 151.985 814.813 147.696 804.84 146.246C794.867 144.796 784.688 146.246 775.516 150.423C766.345 154.6 758.569 161.327 753.116 169.802C747.663 178.277 744.764 188.142 744.764 198.22C744.764 208.298 747.663 218.163 753.116 226.638C758.569 235.113 766.345 241.84 775.516 246.017C784.688 250.193 794.867 251.643 804.84 250.194C814.813 248.744 824.158 244.455 831.76 237.84V250.84H849.88V110.84L831.76 111ZM797.36 232.6C790.556 232.6 783.906 230.582 778.248 226.803C772.591 223.023 768.182 217.65 765.579 211.364C762.975 205.078 762.294 198.162 763.621 191.489C764.948 184.816 768.225 178.686 773.036 173.876C777.847 169.065 783.976 165.788 790.649 164.461C797.322 163.134 804.239 163.815 810.524 166.419C816.81 169.022 822.183 173.431 825.963 179.088C829.743 184.745 831.76 191.396 831.76 198.2C831.76 207.323 828.136 216.073 821.685 222.524C815.233 228.976 806.483 232.6 797.36 232.6V232.6Z" fill="white"/>
<path d="M603.72 111H585.56V250.72H603.72V111Z" fill="white"/>
<path d="M567.44 111H549.28V250.72H567.44V111Z" fill="white"/>
<path d="M972.24 207.36C974.542 194.251 971.782 180.757 964.516 169.605C957.25 158.454 946.022 150.476 933.1 147.286C920.178 144.096 906.527 145.931 894.907 152.42C883.286 158.909 874.562 169.568 870.499 182.242C866.436 194.916 867.336 208.66 873.018 220.696C878.7 232.732 888.74 242.162 901.108 247.079C913.476 251.997 927.249 252.035 939.644 247.186C952.039 242.338 962.131 232.964 967.88 220.96H946.32C942.236 225.627 936.962 229.098 931.061 231.004C925.16 232.91 918.852 233.18 912.809 231.784C906.767 230.389 901.216 227.38 896.749 223.079C892.281 218.778 889.064 213.345 887.44 207.36H972.24ZM887.44 189.2C889.415 181.929 893.728 175.509 899.714 170.932C905.7 166.356 913.025 163.876 920.56 163.876C928.095 163.876 935.421 166.356 941.406 170.932C947.392 175.509 951.705 181.929 953.68 189.2H887.44Z" fill="white"/>
<path d="M432.32 250.72L379.6 198L431.92 145.68H406.24L368.24 183.68V111H350.12V250.72H368.24V212.36L406.64 250.72H432.32Z" fill="white"/>
</svg>
