<svg id="Calque_1" data-name="Calque 1" xmlns="http://www.w3.org/2000/svg" viewBox="0 0 300 100"><defs><style>.cls-1{fill:#ffa300;}</style></defs><path class="cls-1" d="M27.06,71.08c-1-.85-1.48-2.28-1.48-4.25V57a11.32,11.32,0,0,0-.81-4.5,10.56,10.56,0,0,1-3.55,1.83A8.39,8.39,0,0,1,21.58,57v9.87c0,3.2,1,5.66,2.89,7.31a9.22,9.22,0,0,0,6,2,8.77,8.77,0,0,0,1.27-.08l-.61-4A5.67,5.67,0,0,1,27.06,71.08Z"/><path class="cls-1" d="M15.54,52.05v-4c3.75,0,6-.25,6-5V35.07a10.78,10.78,0,0,1,9.63-11.25l.4,4-.2-2,.21,2c-.62.07-6,.87-6,7.27V43C25.58,52.05,18.54,52.05,15.54,52.05Z"/><path class="cls-1" d="M38.65,47.5a11.4,11.4,0,0,0,.8-4.5V35.07c0-6.4,5.42-7.2,6-7.27l-.21-2-.2-2a10.78,10.78,0,0,0-9.63,11.25V43a8.32,8.32,0,0,1-.36,2.66A10.91,10.91,0,0,1,38.65,47.5Z"/><path class="cls-1" d="M44.32,76.14a9.22,9.22,0,0,1-6-2c-1.91-1.65-2.89-4.11-2.89-7.31V57c0-4.81-2.29-5.05-6-5.05v-4c3,0,10,0,10,9.05v9.87c0,2,.5,3.4,1.48,4.25a5.67,5.67,0,0,0,4,1l.61,4A8.77,8.77,0,0,1,44.32,76.14Z"/><path class="cls-1" d="M275.23,52.5a11.32,11.32,0,0,0-.81,4.5v9.86c0,2-.5,3.41-1.48,4.26a5.67,5.67,0,0,1-4.05,1l-.61,4a8.77,8.77,0,0,0,1.27.08,9.24,9.24,0,0,0,6-2c1.91-1.64,2.89-4.1,2.89-7.31V57a8.39,8.39,0,0,1,.36-2.67A10.74,10.74,0,0,1,275.23,52.5Z"/><path class="cls-1" d="M284.46,52.09c-3,0-10,0-10-9.05V35.11c0-6.4-5.42-7.2-6-7.27l.41-4a10.78,10.78,0,0,1,9.63,11.25V43c0,4.8,2.29,5.05,6,5.05Z"/><path class="cls-1" d="M260.55,35.11V43a11.4,11.4,0,0,0,.8,4.5,10.91,10.91,0,0,1,3.56-1.84,8.32,8.32,0,0,1-.36-2.66V35.11a10.78,10.78,0,0,0-9.63-11.25l-.41,4C255.13,27.91,260.55,28.71,260.55,35.11Z"/><path class="cls-1" d="M255.68,76.18a8.77,8.77,0,0,1-1.27-.08l.62-3.95-.31,2,.29-2a5.68,5.68,0,0,0,4.06-1c1-.85,1.48-2.28,1.48-4.26V57c0-9.06,7-9.06,10-9.06v4c-3.75,0-6,.25-6,5.06v9.86c0,3.21-1,5.67-2.89,7.31A9.24,9.24,0,0,1,255.68,76.18Z"/><path d="M119.65,62.68a13.13,13.13,0,1,1,13.13-13.13A13.14,13.14,0,0,1,119.65,62.68Zm0-21.72a8.6,8.6,0,1,0,8.59,8.59A8.6,8.6,0,0,0,119.65,41Z"/><path d="M177.14,36.42v3.23a13.13,13.13,0,1,0,0,19.81v3.22h4.53V36.42Zm-8.6,21.73a8.6,8.6,0,1,1,8.6-8.6A8.6,8.6,0,0,1,168.54,58.15Z"/><path d="M78.45,36.42v3.23a13,13,0,0,0-8.59-3.23,13.13,13.13,0,1,0,8.59,23v3.22H83V36.42ZM69.86,58.15a8.6,8.6,0,1,1,8.59-8.6A8.61,8.61,0,0,1,69.86,58.15Z"/><path d="M207.94,27.75v11.9a13.13,13.13,0,1,0,0,19.81v3.25h4.53v-35Zm-8.6,30.4a8.6,8.6,0,1,1,8.6-8.6A8.6,8.6,0,0,1,199.34,58.15Z"/><rect x="146.39" y="27.75" width="4.54" height="34.93"/><rect x="137.32" y="27.75" width="4.54" height="34.93"/><path d="M243.06,51.84a13.13,13.13,0,1,0-1.09,3.4h-5.39a8.57,8.57,0,0,1-14.72-3.4Zm-21.2-4.54a8.58,8.58,0,0,1,16.56,0Z"/><polygon points="108.08 62.68 94.9 49.5 107.98 36.42 101.56 36.42 92.06 45.92 92.06 27.75 87.53 27.75 87.53 62.68 92.06 62.68 92.06 53.09 101.66 62.68 108.08 62.68"/></svg>